<svg xmlns="http://www.w3.org/2000/svg" viewBox="0 0 86 86" fill="none">
  <rect x="0.73" y="0.31" width="84.75" height="84.75" rx="42.38" fill="#B4F9BA"/>
  <path d="M34.56 21.66L42.76 16.93C42.99 16.79 43.28 16.79 43.51 16.93L65.1 29.39C65.33 29.53 65.48 29.78 65.48 30.05L65.51 38.62C65.51 38.89 65.36 39.14 65.13 39.28L56.95 44C56.45 44.29 55.82 43.93 55.81 43.35L55.79 35.65C55.79 35.38 55.64 35.13 55.41 35L34.56 22.97C34.06 22.68 34.06 21.95 34.56 21.66Z" fill="#010101"/>
  <path d="M29.27 60.49L21.08 55.76C20.85 55.63 20.7 55.38 20.7 55.11V30.18C20.7 29.91 20.85 29.66 21.08 29.52L28.49 25.21C28.73 25.07 29.02 25.07 29.25 25.21L37.43 29.93C37.93 30.22 37.93 30.95 37.43 31.24L30.78 35.11C30.55 35.25 30.41 35.5 30.41 35.77V59.84C30.41 60.42 29.78 60.78 29.27 60.49Z" fill="#010101"/>
  <path d="M65.51 45.65V55.1C65.51 55.38 65.36 55.62 65.13 55.76L43.54 68.22C43.31 68.36 43.02 68.36 42.79 68.22L35.35 63.96C35.11 63.83 34.96 63.58 34.96 63.3V53.86C34.96 53.28 35.59 52.91 36.1 53.2L42.77 57.03C43.01 57.16 43.29 57.16 43.53 57.03L64.37 44.99C64.88 44.7 65.51 45.06 65.51 45.65Z" fill="#010101"/>
</svg>
