<svg xmlns="http://www.w3.org/2000/svg" viewBox="0 0 2500 2500">
  <circle cx="1250" cy="1250" r="1250" fill="#FFFFFF"/>
  <path fill="#B7B5B1" d="M2500,1131C2213-533,40-211,1,1131c125,65,204,105,204,105s-66,40-205,128c250,1632,2386,1395,2500-2    c-136-83-210-127-210-127S2354,1205,2500,1131z M1431,1712l-204-350l-207,350l-157-11l295-497L892,775l160-14l189,318l189-304    l149,4l-248,422l273,508l-175,4L1431,1712z"/>
  <path fill="#244B81" d="M2399,1066C2010-413,225-13,103,1066c248,139,304,172,304,172s-96,61-305,194c266,1422,2191,1148,2297-2    c-194-122-309-193-309-193S2352,1091,2399,1066z M1431,1713l-204-350l-207,350l-156-11l295-497L893,776l160-14l189,318l189-304    l149,4l-247,422l273,508l-175,4V1713z"/>
</svg>
