<svg viewBox="0 0 24 24" fill="none" xmlns="http://www.w3.org/2000/svg">
<path d="M21.9974 2.3372C20.9446 2.3372 20.0214 2.39671 19.1101 2.32C18.22 2.24594 17.5191 2.46813 17.0019 3.20614C16.7467 3.56985 16.4729 3.6016 16.0483 3.40982C14.2933 2.61759 12.4482 2.41126 10.5556 2.75514C4.47697 3.86215 1.03294 10.3415 3.52735 15.9864C3.68871 16.3514 3.65961 16.5683 3.37393 16.8434C2.4058 17.7758 1.46411 18.736 0.515811 19.6896C0.370326 19.8351 0.243357 19.9978 0 20.2742C0.899363 20.2742 1.64663 20.2107 2.37934 20.2887C3.58158 20.417 4.59204 20.1803 5.30889 19.1288C5.35253 19.064 5.44908 19.0362 5.55886 18.9675C6.79548 20.1142 8.20007 20.9461 9.82951 21.3759C16.1396 23.0371 22.3095 17.9623 21.7633 11.2779C21.7262 10.8256 21.5794 10.6404 21.0808 10.647C18.7887 10.6761 16.4967 10.6563 14.2033 10.6629C14.0129 10.6629 13.7576 10.6603 13.6425 10.7714C12.7154 11.6668 11.8147 12.5899 10.7738 13.6374H18.5586C18.3192 15.8753 16.0417 18.0827 13.5486 18.5733C10.7077 19.1328 7.84297 17.8062 6.48864 15.3012C5.10521 12.7434 5.53637 9.60088 7.57316 7.54557C8.56114 6.54833 9.74883 5.9201 11.1442 5.68732C13.3661 5.31568 15.2614 6.01136 16.8776 7.45166C18.5785 5.75213 20.2277 4.1055 22 2.3372H21.9974Z" fill="currentColor"/>
</svg>

