<svg viewBox="0 0 34 13" fill="none" xmlns="http://www.w3.org/2000/svg">
<path d="M3.4276 4.24878L2.42061 2.18352C2.32693 1.98403 2.42061 1.77281 2.64308 1.72587L9.77401 0.0126296C9.99652 -0.0460429 10.1721 0.106506 10.1721 0.329462V2.98146C10.1721 3.12228 10.0668 3.26309 9.92624 3.2983L4.24725 4.6595C3.94281 4.7299 3.6852 5.04673 3.6852 5.36357L3.6735 7.64008C3.6735 7.87477 3.48614 8.1212 3.25198 8.16812L1.51899 8.5671C1.156 8.64925 0.851562 8.41456 0.851562 8.03906V5.82121C0.851562 5.58652 1.03891 5.35183 1.2731 5.29317L3.13486 4.85901C3.4276 4.8003 3.55642 4.51869 3.4276 4.24878Z" fill="currentColor"/>
<path d="M19.6077 8.35715H16.3642V3.25001H14.8672V9.75002H19.6077V8.35715Z" fill="currentColor"/>
<path d="M20.5838 9.75002H22.0808V3.25001H20.5838V9.75002Z" fill="currentColor"/>
<path d="M24.622 9.75002H23.1989V8.32001H24.622V9.75002Z" fill="currentColor"/>
<path d="M27.2333 7.21502H30.3659V5.93358H27.2333V4.56858H30.6339V3.25001H25.7363V9.75002H27.2333V7.21502Z" fill="currentColor"/>
<path d="M33.1485 9.75002H31.6515V3.25001H33.1485V9.75002Z" fill="currentColor"/>
<path d="M4.96132 8.81349L1.10896 9.70534C0.968449 9.74052 0.863068 9.88132 0.863068 10.0221V12.6741C0.863068 12.8971 1.03871 13.0379 1.26118 12.991L6.63572 11.7471C6.85823 11.7002 6.95191 11.489 6.85823 11.2895L5.88635 9.28288C5.73413 8.96604 5.88635 8.63746 6.2259 8.56706L9.73871 7.72218C9.98462 7.66352 10.1954 7.40535 10.1954 7.14717V4.69468C10.1954 4.47173 10.0197 4.31918 9.79725 4.37784L4.72712 5.58652C4.41097 5.65692 4.27045 5.96202 4.41097 6.25537L5.30087 8.09768C5.45309 8.41451 5.30087 8.73135 4.96132 8.81349Z" fill="currentColor"/>
</svg>
