<svg width="372" height="372" viewBox="0 0 372 372" fill="none" xmlns="http://www.w3.org/2000/svg">
<path d="M80.3722 118.937C138.819 61.6876 233.581 61.6876 292.029 118.937L299.062 125.827C301.985 128.69 301.985 133.33 299.062 136.193L275 159.763C273.539 161.194 271.17 161.194 269.708 159.763L260.029 150.281C219.254 110.342 153.146 110.342 112.371 150.281L102.005 160.435C100.544 161.866 98.1755 161.866 96.7139 160.435L72.6516 136.866C69.7284 134.003 69.7284 129.362 72.6516 126.499L80.3722 118.937ZM341.792 167.682L363.209 188.658C366.131 191.521 366.131 196.161 363.209 199.024L266.643 293.613C263.721 296.474 258.982 296.474 256.06 293.613L187.523 226.481C186.793 225.765 185.608 225.765 184.877 226.481L116.343 293.613C113.421 296.474 108.682 296.474 105.76 293.613L9.19177 199.023C6.26941 196.161 6.26941 191.52 9.19177 188.657L30.6077 167.68C33.53 164.818 38.2682 164.818 41.1905 167.68L109.728 234.812C110.458 235.529 111.643 235.529 112.373 234.812L180.907 167.68C183.829 164.818 188.568 164.818 191.49 167.68L260.028 234.812C260.758 235.529 261.943 235.529 262.674 234.812L331.209 167.682C334.132 164.819 338.87 164.819 341.792 167.682Z" fill="black"/>
</svg>
