<?xml version="1.0" encoding="utf-8"?>
<!-- Generator: Adobe Illustrator 26.3.1, SVG Export Plug-In . SVG Version: 6.00 Build 0)  -->
<svg version="1.1" id="Layer_1" xmlns="http://www.w3.org/2000/svg" xmlns:xlink="http://www.w3.org/1999/xlink" x="0px" y="0px"
	 viewBox="0 0 869.8 457.5" style="enable-background:new 0 0 869.8 457.5;" xml:space="preserve">
<style type="text/css">
	.st0{fill:#231F20;}
</style>
<path class="st0" d="M650.9,252c-13.2-13.3-19.9-36.2-19.9-68.5s6.5-55.2,19.7-68.7c13.2-13.4,38.1-20.2,74.7-20.2l117.5-0.1
	l-45.8-57.8l-74,0.1C664,36.9,621,48.8,594.2,72.4C582,83.2,572.7,96.9,566,113.3c7.4,20,11.1,43.4,11.1,70.3s-3.6,50.3-11,70.2
	c6.7,16.3,16,30,28.3,40.7c26.9,23.5,69.9,35.3,129,35.2l68.4-0.1l45.3-57.8l-111.6,0.1C689,272,664.1,265.3,650.9,252z"/>
<path class="st0" d="M333,37.3l-52,0.1h-14.5c-13.7,0.2-25.7,6.6-35.7,19.5l-55.9,71.1l-56-71C108.6,44,96.7,37.5,83.1,37.5l-43.9,0
	c-7.5,0-11.2,3.1-11.2,9.4c0,3.1,1.4,6.5,4.3,10l97.1,122.8L26.6,311.3c-2.8,3.7-4.3,7-4.3,10c0.8,6.1,4.6,9.2,11.5,9.2l43.5,0
	c13.6,0,25.5-6.4,35.5-19.2l62.2-79.5l62.4,79.4c10.1,12.8,21.9,19.2,35.6,19.1l66-0.1L220.4,179.7L333,37.3z"/>
<path class="st0" d="M524.7,294.6c12.3-10.8,21.6-24.5,28.2-40.8c2.7-6.6,4.9-13.4,6.6-20.4c3.6-14.9,5.4-31.5,5.4-49.9
	s-1.9-35.1-5.5-49.9c-1.7-6.9-3.9-13.7-6.7-20.3c-6.7-16.3-16-30-28.3-40.8c-26.9-23.6-69.9-35.3-129-35.3h-46.7L303,95.1l90.2-0.1
	c36.6,0,61.6,6.6,74.8,20c13.2,13.4,19.9,36.2,19.9,68.6c0,32.3-6.6,55.2-19.7,68.5c-13.2,13.4-38.1,20.1-74.7,20.1l-84.4,0.1
	l45.5,57.8l41.2,0C454.8,330,497.8,318.2,524.7,294.6z"/>
<polygon class="st0" points="295.1,254.1 295,105.7 236.6,180 "/>
<path class="st0" d="M752.1,373.9l22.2-22.7c0.6-0.6,0.6-1.5,0-2.1c-0.3-0.3-0.7-0.4-1.1-0.4h-7.9c-0.4,0-0.8,0.2-1.1,0.5
	l-28.4,29.6v-28.6c0-0.8-0.7-1.5-1.5-1.5h-6.1c-0.8,0-1.5,0.7-1.5,1.5l0.1,54c0,0.8,0.7,1.5,1.5,1.5h6.1c0.8,0,1.5-0.7,1.5-1.5
	v-13.9l9.9-10l19.8,24.8c0.3,0.4,0.7,0.6,1.2,0.6h7.6c0.8,0,1.5-0.7,1.5-1.5c0-0.3-0.1-0.7-0.3-0.9L752.1,373.9z"/>
<path class="st0" d="M701.1,383.1c1.4-0.4,2.7-0.9,3.9-1.5c1.9-0.9,3.6-2.1,5.1-3.6c1.5-1.5,2.6-3.2,3.4-5.1
	c0.8-2.1,1.2-4.4,1.2-6.6c0-2.5-0.5-5-1.5-7.2c-1-2.2-2.5-4.1-4.3-5.6c-2-1.6-4.2-2.8-6.6-3.5c-2.8-0.9-5.6-1.3-8.5-1.2h-23.2
	c-0.8,0-1.5,0.7-1.5,1.5l0.1,54.1c0,0.8,0.7,1.5,1.5,1.5h6.1c0.8,0,1.5-0.7,1.5-1.5v-19.5h13.2l15.2,20.4c0.3,0.4,0.7,0.6,1.2,0.6
	h7.5c0.8,0,1.5-0.7,1.5-1.5c0-0.3-0.1-0.7-0.3-0.9L701.1,383.1z M693.1,376.4h-15.2v-19h15.2c4,0,7.2,0.8,9.3,2.5
	c2.1,1.6,3.2,4.1,3.1,6.8c0,1.4-0.3,2.8-0.9,4.1c-0.6,1.2-1.4,2.2-2.5,3c-1.2,0.9-2.5,1.6-3.9,2
	C696.6,376.2,694.9,376.4,693.1,376.4L693.1,376.4z"/>
<path class="st0" d="M653,356.6c-2.6-2.7-5.7-4.9-9.2-6.4c-7.6-3.2-16.1-3.1-23.7,0.1c-3.5,1.5-6.6,3.7-9.2,6.5
	c-2.5,2.7-4.6,5.9-5.9,9.4c-1.4,3.6-2.1,7.4-2.1,11.2c0,3.8,0.7,7.7,2.1,11.2c2.7,7.1,8.1,12.8,15.1,15.8c7.6,3.2,16.1,3.1,23.7-0.1
	c3.5-1.5,6.6-3.7,9.2-6.5c2.6-2.7,4.6-5.9,5.9-9.4c1.4-3.6,2.1-7.4,2.1-11.2c0-3.8-0.7-7.6-2.1-11.2
	C657.6,362.5,655.6,359.3,653,356.6z M650.2,385.5c-0.9,2.4-2.3,4.7-4.1,6.6c-1.7,1.9-3.8,3.4-6.2,4.4c-2.5,1.1-5.2,1.6-7.9,1.6
	c-2.7,0-5.4-0.5-7.9-1.6c-2.4-1.1-4.5-2.6-6.3-4.5c-1.8-1.9-3.2-4.2-4.1-6.6c-2-5.3-2-11.1,0-16.3c0.9-2.4,2.3-4.7,4.1-6.6
	c1.7-1.9,3.8-3.4,6.2-4.4c2.5-1.1,5.2-1.6,7.9-1.6c2.7,0,5.4,0.5,7.9,1.6c4.8,2.1,8.6,6.1,10.4,11c1,2.6,1.5,5.4,1.5,8.2
	C651.7,380.2,651.2,382.9,650.2,385.5L650.2,385.5z"/>
<path class="st0" d="M598.5,348.8h-6.5c-0.6,0-1.2,0.4-1.4,1l-14,40.8l-13.5-40.9c-0.2-0.6-0.8-1-1.4-1h-5c-0.6,0-1.2,0.4-1.4,1
	l-13.3,41l-14-40.8c-0.2-0.6-0.8-1-1.4-1h-6.6c-0.8,0-1.5,0.7-1.5,1.5c0,0.2,0,0.3,0.1,0.5l19.4,54.4c0.2,0.6,0.8,1,1.4,1h5.1
	c0.6,0,1.2-0.4,1.4-1l13.4-39.7l13.5,39.7c0.2,0.6,0.8,1,1.4,1h5.2c0.6,0,1.2-0.4,1.4-1l19.1-54.3c0.1-0.2,0.2-0.5,0.2-0.7
	C600,349.5,599.3,348.8,598.5,348.8z"/>
<path class="st0" d="M512.5,348.9l-42.4,0c-0.8,0-1.5,0.7-1.5,1.5v5.6c0,0.8,0.7,1.5,1.5,1.5h16.6l0,46.9c0,0.8,0.7,1.5,1.5,1.5h6.1
	c0.8,0,1.5-0.7,1.5-1.5l0-46.9h16.7c0.8,0,1.5-0.7,1.5-1.5v-5.6C514.1,349.6,513.4,348.9,512.5,348.9
	C512.6,348.9,512.6,348.9,512.5,348.9z"/>
<path class="st0" d="M461.8,397.5h-31.9v-15.9h28c0.8,0,1.5-0.7,1.5-1.5v-5.5c0-0.8-0.7-1.5-1.5-1.5h-28v-15.4h31.5
	c0.8,0,1.5-0.7,1.5-1.5v-5.6c0-0.8-0.7-1.5-1.5-1.5h-39.1c-0.8,0-1.5,0.7-1.5,1.5l0.1,54c0,0.8,0.7,1.5,1.5,1.5h39.5
	c0.8,0,1.5-0.7,1.5-1.5V399C463.4,398.2,462.7,397.5,461.8,397.5C461.8,397.5,461.8,397.5,461.8,397.5z"/>
<path class="st0" d="M407,349h-6c-0.8,0-1.5,0.7-1.5,1.5v39l-31.4-39.9c-0.3-0.4-0.7-0.6-1.2-0.6h-5.7c-0.8,0-1.5,0.7-1.5,1.5
	l0.1,54c0,0.8,0.7,1.5,1.5,1.5h6c0.8,0,1.5-0.7,1.5-1.5v-40l32.3,40.9c0.3,0.4,0.7,0.6,1.2,0.6h4.9c0.8,0,1.5-0.7,1.5-1.5l-0.1-54.1
	C408.5,349.7,407.8,349,407,349C407,349,407,349,407,349z"/>
</svg>
