<svg width="150" height="100" viewBox="0 0 150 100" fill="none" xmlns="http://www.w3.org/2000/svg">
<g opacity="0.8">
<path d="M125.514 86.7042L125.514 86.7044C125.21 86.9958 124.689 86.8617 124.581 86.4835L124.581 86.4833L123.834 83.8857L123.343 84.0234L123.834 83.8857L123.087 81.2883C122.984 80.9291 123.332 80.5548 123.764 80.6594L123.765 80.6595L126.529 81.3265L129.293 81.9935C129.293 81.9935 129.293 81.9936 129.293 81.9936C129.718 82.0966 129.831 82.5725 129.549 82.8432C129.549 82.8433 129.548 82.8433 129.548 82.8434L127.531 84.7737L125.514 86.7042Z" stroke="#1884FF" stroke-miterlimit="10"/>
<path d="M94.8588 17.6184L94.8587 17.6182C94.7471 17.2363 94.22 17.0859 93.9176 17.3781L93.9175 17.3783L91.9376 19.2903L91.5888 18.9299L91.9376 19.2903L89.9579 21.2023C89.9578 21.2023 89.9578 21.2023 89.9577 21.2024C89.6943 21.4571 89.7886 21.9378 90.228 22.0524L90.2283 22.0525L92.9783 22.7716L95.7279 23.4906C95.728 23.4906 95.728 23.4906 95.7281 23.4907C95.7281 23.4907 95.7282 23.4907 95.7282 23.4907C96.1807 23.6085 96.4983 23.2211 96.3988 22.8806L95.6288 20.2496L94.8588 17.6184Z" stroke="#1884FF" stroke-miterlimit="10"/>
<path d="M148.337 88.2431L147.617 88.5046C147.414 88.5783 147.312 88.7956 147.389 88.9899L147.662 89.6798C147.739 89.8742 147.965 89.972 148.168 89.8984L148.887 89.6368C149.09 89.5632 149.192 89.3459 149.115 89.1515L148.843 88.4616C148.766 88.2672 148.539 88.1694 148.337 88.2431Z" fill="#1884FF"/>
<path d="M1.83065 38.8547L1.11117 39.1163C0.908466 39.1899 0.806426 39.4072 0.883263 39.6016L1.156 40.2915C1.23283 40.4859 1.45945 40.5837 1.66215 40.51L2.38164 40.2485C2.58434 40.1748 2.68636 39.9575 2.60952 39.7632L2.33679 39.0733C2.25995 38.8789 2.03336 38.7811 1.83065 38.8547Z" fill="#1884FF"/>
<path d="M35.485 8.95008L34.7655 9.2116C34.5628 9.28527 34.4607 9.50257 34.5376 9.69693L34.8103 10.3868C34.8871 10.5812 35.1137 10.679 35.3164 10.6054L36.0359 10.3438C36.2386 10.2702 36.3407 10.0529 36.2638 9.8585L35.9911 9.16861C35.9143 8.97424 35.6877 8.8764 35.485 8.95008Z" fill="#1884FF"/>
<path d="M76.5522 3.64469L77.2716 3.90621C77.4743 3.97988 77.5764 4.19718 77.4995 4.39154L77.2268 5.08144C77.15 5.27581 76.9234 5.37364 76.7207 5.29997L76.0012 5.03845C75.7985 4.96477 75.6964 4.74748 75.7733 4.55311L76.046 3.86322C76.1229 3.66885 76.3495 3.57101 76.5522 3.64469Z" fill="#1884FF"/>
<path d="M68.6697 84.6285C68.0972 84.825 67.5101 84.3616 67.6125 83.7962L67.9714 81.8164L68.3303 79.8366C68.4333 79.2692 69.1487 79.0254 69.6187 79.3943L71.2602 80.6882L72.9016 81.9821C73.3711 82.353 73.2429 83.0602 72.6704 83.2567L70.6701 83.9426L68.6697 84.6285Z" fill="#1884FF"/>
<path d="M43.2141 55.7807C43.2141 56.2424 42.8176 56.6522 42.2838 56.6522C41.75 56.6522 41.3535 56.2424 41.3535 55.7807C41.3535 55.319 41.75 54.9092 42.2838 54.9092C42.8176 54.9092 43.2141 55.319 43.2141 55.7807Z" stroke="#1884FF" stroke-miterlimit="10"/>
<path d="M99.8116 77.0296C99.8116 77.784 99.1677 78.431 98.3287 78.431C97.4897 78.431 96.8457 77.784 96.8457 77.0296C96.8457 76.2752 97.4897 75.6282 98.3287 75.6282C99.1677 75.6282 99.8116 76.2752 99.8116 77.0296Z" stroke="#1884FF" stroke-miterlimit="10"/>
<path d="M134.32 65.3374L135.399 64.9453C135.703 64.8348 135.856 64.5091 135.741 64.2177L135.332 63.1834C135.217 62.892 134.877 62.7453 134.573 62.8557L133.494 63.2478C133.19 63.3583 133.037 63.684 133.153 63.9754L133.561 65.0098C133.677 65.3012 134.016 65.4478 134.32 65.3374Z" fill="#1884FF"/>
<path d="M47.8646 92.2821C47.8646 93.3867 46.9246 94.3176 45.7204 94.3176C44.5162 94.3176 43.5762 93.3867 43.5762 92.2821C43.5762 91.1775 44.5162 90.2466 45.7204 90.2466C46.9246 90.2466 47.8646 91.1775 47.8646 92.2821Z" stroke="#1884FF" stroke-miterlimit="10"/>
<path d="M47.5005 7.8277C48.5957 7.8277 49.4835 6.97641 49.4835 5.92628C49.4835 4.87615 48.5957 4.02486 47.5005 4.02486C46.4054 4.02486 45.5176 4.87615 45.5176 5.92628C45.5176 6.97641 46.4054 7.8277 47.5005 7.8277Z" fill="#1884FF"/>
<path d="M120.219 14.5979L120.209 14.6161C120.144 14.7671 120.257 14.9684 120.462 14.963L120.462 14.963L122.5 14.9093L124.537 14.8556C124.537 14.8556 124.537 14.8556 124.537 14.8556C124.721 14.8508 124.839 14.6576 124.734 14.4911C124.734 14.491 124.734 14.491 124.734 14.4909L123.666 12.7943L124.096 12.5272L123.666 12.7943L122.597 11.0976L122.597 11.0975C122.482 10.9147 122.237 10.9505 122.157 11.0953L122.157 11.0954L121.188 12.8467L120.219 14.5979Z" stroke="#1884FF" stroke-miterlimit="10"/>
<path d="M27.9449 25.3389C28.7613 25.0667 29.5911 25.732 29.4373 26.5359L28.9005 29.3464L28.3637 32.1568C28.2098 32.9608 27.189 33.3015 26.5259 32.7689L24.2078 30.9091L21.8897 29.0493C21.2266 28.5166 21.4187 27.5124 22.2351 27.2402L25.09 26.2895L27.9449 25.3389Z" fill="#1884FF"/>
<path d="M25.8359 71.7377L26.9146 72.1297C27.2185 72.2402 27.3715 72.566 27.2563 72.8574L26.8474 73.8917C26.7322 74.1831 26.3924 74.3298 26.0885 74.2193L25.0099 73.8272C24.706 73.7168 24.553 73.391 24.6682 73.0996L25.0771 72.0653C25.1923 71.7739 25.532 71.6272 25.8359 71.7377Z" fill="#1884FF"/>
<path d="M110.602 0.200002L111.68 0.592077C111.984 0.702537 112.137 1.02831 112.022 1.31971L111.613 2.35403C111.498 2.64543 111.158 2.7921 110.854 2.68164L109.775 2.28957C109.472 2.17911 109.319 1.85334 109.434 1.56194L109.843 0.527628C109.958 0.236228 110.298 0.0895422 110.602 0.200002Z" fill="#1884FF"/>
<path d="M91.7168 99.7962L92.7954 99.4041C93.0993 99.2937 93.2523 98.9679 93.1371 98.6765L92.7282 97.6422C92.613 97.3508 92.2733 97.2041 91.9694 97.3146L90.8907 97.7066C90.5868 97.8171 90.4339 98.1429 90.5491 98.4343L90.9579 99.4686C91.0731 99.76 91.4129 99.9067 91.7168 99.7962Z" fill="#1884FF"/>
<path d="M54.6445 24.73L55.7232 24.3379C56.0271 24.2274 56.1801 23.9017 56.0649 23.6103L55.656 22.576C55.5408 22.2846 55.201 22.1379 54.8971 22.2483L53.8185 22.6404C53.5146 22.7509 53.3616 23.0766 53.4768 23.368L53.8857 24.4023C54.0009 24.6937 54.3406 24.8404 54.6445 24.73Z" fill="#1884FF"/>
<path d="M108.365 47.846C108.483 48.4179 109.2 48.6628 109.653 48.288L111.24 46.9755L112.826 45.6629C113.281 45.2866 113.132 44.5729 112.56 44.3758L110.559 43.6904L108.558 43.005C107.985 42.8094 107.418 43.2782 107.536 43.8502L107.951 45.8481L108.365 47.846Z" fill="#1884FF"/>
<path d="M135.797 39.2172C135.797 41.0222 137.329 42.521 139.264 42.521C141.198 42.521 142.73 41.0222 142.73 39.2172C142.73 37.4121 141.198 35.9134 139.264 35.9134C137.329 35.9134 135.797 37.4121 135.797 39.2172Z" stroke="#1884FF" stroke-miterlimit="10"/>
<path d="M13.8039 63.9676C13.8033 64.0026 13.8186 64.0372 13.856 64.0663C13.8996 64.1001 13.9547 64.1104 14.0093 64.0898L14.0093 64.0898L15.6131 63.4851L17.2169 62.8804C17.2685 62.8609 17.2902 62.8261 17.2956 62.7893C17.3011 62.752 17.2902 62.7102 17.2447 62.6749L15.8863 61.6209L15.8863 61.6209L14.5277 60.5668L14.5276 60.5667C14.4804 60.5301 14.4249 60.5244 14.3752 60.5432C14.3263 60.5617 14.3023 60.5948 14.2965 60.6344L14.2965 60.6345L14.0512 62.2941L13.806 63.9536L13.8039 63.9676Z" stroke="#1884FF" stroke-miterlimit="10"/>
</g>
<g filter="url(#filter0_d_2479_11111)">
<path fill-rule="evenodd" clip-rule="evenodd" d="M83.3288 34.6578H76.4941V41.0801C77.6282 40.2886 79.0076 39.8245 80.4954 39.8245C83.0728 39.8245 85.1621 41.9138 85.1621 44.4911C85.1621 45.9784 84.6983 47.3573 83.9074 48.4911H90.3288V41.6578C90.3288 37.7918 87.1948 34.6578 83.3288 34.6578ZM79.2348 53.1543C78.7234 52.5862 78.2594 52.0157 77.8578 51.4911L78.1621 51.4911L78.1749 51.4911H90.3288V58.3244C90.3288 62.1904 87.1948 65.3244 83.3288 65.3244H76.4941V54.5774C76.6587 54.7708 76.8291 54.9659 77.0049 55.1612C77.9893 56.255 79.1774 57.3947 80.4909 58.2704C81.7931 59.1386 83.3346 59.8244 84.9948 59.8244V56.8244C84.155 56.8244 83.1965 56.4686 82.155 55.7743C81.1248 55.0875 80.1253 54.1438 79.2348 53.1543ZM78.1709 48.4911C80.376 48.4864 82.1621 46.6973 82.1621 44.4911C82.1621 43.5707 81.4159 42.8245 80.4954 42.8245C78.2863 42.8245 76.4954 44.6153 76.4954 46.8245V48.4911L78.1709 48.4911ZM73.4928 46.8245V48.4911L71.8165 48.4911C69.6118 48.4859 67.8262 46.697 67.8262 44.4911C67.8262 43.5707 68.5724 42.8245 69.4928 42.8245C71.702 42.8245 73.4928 44.6153 73.4928 46.8245ZM64.8262 44.4911C64.8262 45.9784 65.29 47.3573 66.0809 48.4911H59.6621V41.6578C59.6621 37.7918 62.7961 34.6578 66.6621 34.6578H73.4941V41.0801C72.3601 40.2886 70.9807 39.8245 69.4928 39.8245C66.9155 39.8245 64.8262 41.9138 64.8262 44.4911ZM59.6621 51.4911H71.8134L71.8262 51.4911L72.1305 51.4911C71.7288 52.0157 71.2649 52.5862 70.7535 53.1543C69.8629 54.1438 68.8635 55.0875 67.8333 55.7743C66.7917 56.4686 65.8332 56.8244 64.9934 56.8244V59.8244C66.6536 59.8244 68.1952 59.1386 69.4974 58.2704C70.8109 57.3947 71.9989 56.255 72.9834 55.1612C73.1592 54.9659 73.3296 54.7708 73.4941 54.5774V65.3244H66.6621C62.7961 65.3244 59.6621 62.1904 59.6621 58.3244V51.4911ZM66.6621 31.6578C61.1393 31.6578 56.6621 36.1349 56.6621 41.6578V58.3244C56.6621 63.8473 61.1393 68.3244 66.6621 68.3244H83.3288C88.8516 68.3244 93.3288 63.8473 93.3288 58.3244V41.6578C93.3288 36.1349 88.8516 31.6578 83.3288 31.6578H66.6621Z" fill="#1a85ff"/>
</g>
<defs>
<filter id="filter0_d_2479_11111" x="50.9941" y="29.9911" width="48" height="48" filterUnits="userSpaceOnUse" color-interpolation-filters="sRGB">
<feFlood flood-opacity="0" result="BackgroundImageFix"/>
<feColorMatrix in="SourceAlpha" type="matrix" values="0 0 0 0 0 0 0 0 0 0 0 0 0 0 0 0 0 0 127 0" result="hardAlpha"/>
<feOffset dy="4"/>
<feGaussianBlur stdDeviation="2"/>
<feComposite in2="hardAlpha" operator="out"/>
<feColorMatrix type="matrix" values="0 0 0 0 0 0 0 0 0 0 0 0 0 0 0 0 0 0 0.25 0"/>
<feBlend mode="normal" in2="BackgroundImageFix" result="effect1_dropShadow_2479_11111"/>
<feBlend mode="normal" in="SourceGraphic" in2="effect1_dropShadow_2479_11111" result="shape"/>
</filter>
</defs>
</svg>

