<svg width="105" height="105" viewBox="0 0 105 105" fill="none" xmlns="http://www.w3.org/2000/svg">
<path d="M15.1352 22.0389L17.7594 20.5203C17.8342 20.4771 17.9268 20.4771 18.0016 20.5203L24.9178 24.5217C24.9925 24.5649 25.0385 24.6448 25.0392 24.7312L25.0486 27.4832C25.0486 27.5704 25.0026 27.651 24.9271 27.6942L22.3065 29.2107C22.1456 29.3043 21.9437 29.1876 21.9429 29.0011L21.9343 26.5313C21.9343 26.4449 21.8876 26.365 21.8129 26.3218L15.1352 22.4594C14.9735 22.3658 14.9735 22.1325 15.1352 22.0389Z" fill="#1a85ff"/>
<path d="M13.4397 34.5044L10.8163 32.9865C10.7408 32.9433 10.6948 32.8634 10.6948 32.7763V24.7735C10.6948 24.6871 10.7408 24.6072 10.8155 24.5632L13.1897 23.1786C13.2651 23.1347 13.3579 23.1347 13.4326 23.1786L16.0532 24.695C16.2142 24.7886 16.2149 25.0212 16.0539 25.1155L13.9241 26.3576C13.8494 26.4009 13.8034 26.4808 13.8034 26.5679V34.2949C13.8034 34.482 13.6014 34.5979 13.4397 34.5044Z" fill="#1a85ff"/>
<path d="M25.051 29.7397V32.7755C25.051 32.8626 25.005 32.9425 24.9295 32.9858L18.0133 36.9871C17.9385 37.0303 17.8466 37.0303 17.7718 36.9871L15.3883 35.619C15.3129 35.5758 15.2662 35.4951 15.2662 35.408V32.3758C15.2662 32.1893 15.4674 32.0727 15.6291 32.1649L17.7676 33.3926C17.8422 33.4358 17.9343 33.4351 18.009 33.3926L24.6866 29.5288C24.8483 29.4351 25.0502 29.5518 25.0502 29.739L25.051 29.7397Z" fill="#1a85ff"/>
<path d="M17.1662 55.6813C17.4962 55.6811 17.8263 55.681 18.1565 55.681C18.4867 55.681 18.8168 55.6813 19.1468 55.6816C19.8066 55.6822 20.4664 55.6828 21.1266 55.681C21.7945 55.6795 22.2586 55.2593 22.277 54.6466C22.2954 54.0551 21.8143 53.5627 21.1676 53.5599C19.164 53.55 17.1604 53.55 15.1568 53.5599C14.4733 53.5641 14.0333 54 14.0347 54.6211C14.0375 55.2579 14.4917 55.6795 15.1865 55.681C15.8467 55.6819 16.5064 55.6816 17.1662 55.6813Z" fill="#1a85ff"/>
<path fill-rule="evenodd" clip-rule="evenodd" d="M0.502618 8.3611V31.3886C0.502618 33.5573 0.501841 35.7261 0.501065 37.895C0.499068 43.4723 0.497071 49.05 0.508278 54.6269C0.512523 56.8611 1.35585 58.7657 3.00007 60.2812C4.53391 61.6961 6.37339 62.3244 8.45908 62.3202C12.9265 62.3099 17.3947 62.3115 21.8625 62.3132C23.5374 62.3139 25.2131 62.3145 26.8878 62.3145C27.0021 62.3145 27.1163 62.3149 27.2306 62.3154C27.6119 62.3169 27.9937 62.3184 28.3736 62.3032C32.5464 62.139 35.7924 58.7615 35.7924 54.5873C35.7924 39.212 35.7923 23.8382 35.7895 8.46298C35.7895 8.13329 35.7725 7.8036 35.7428 7.47532C35.3834 3.53883 32.0653 0.507934 28.1047 0.505104C21.4656 0.502274 14.8279 0.503689 8.19023 0.507934C7.8379 0.509349 7.48133 0.529159 7.13324 0.584343C3.20241 1.20552 0.504033 4.37084 0.502618 8.3611ZM2.62227 10.4326H33.6699L33.6698 14.7958C33.6697 25.3593 33.6696 35.9229 33.6784 46.4865C33.6784 46.8402 33.5949 46.9421 33.2312 46.9421C25.213 46.9333 17.1958 46.9334 9.17883 46.9336L6.17246 46.9336C5.88611 46.9336 5.59975 46.9327 5.31343 46.9317C4.55011 46.9292 3.78648 46.9267 3.02412 46.9421C2.69301 46.9478 2.61519 46.843 2.61519 46.5233C2.62262 40.2312 2.62246 33.938 2.62231 27.6447L2.62227 10.4326ZM2.64336 49.0575C2.63992 49.0953 2.63674 49.1269 2.63399 49.1543C2.62774 49.2165 2.62368 49.2569 2.62368 49.298C2.62368 49.8391 2.62062 50.3802 2.61756 50.9212C2.61022 52.2195 2.60287 53.5176 2.63783 54.8151C2.68594 56.5796 3.46843 58.0059 4.86643 59.0841C5.91777 59.8935 7.12758 60.2104 8.43785 60.2104C11.2875 60.2092 14.1372 60.209 16.9869 60.2089C20.5499 60.2087 24.1129 60.2085 27.676 60.2062C28.017 60.2062 28.358 60.1864 28.6976 60.1538C31.4031 59.8963 33.592 57.5814 33.6557 54.8589C33.68 53.7932 33.677 52.7269 33.6741 51.6605C33.672 50.9234 33.67 50.1852 33.6769 49.448C33.6798 49.1381 33.5991 49.0476 33.2836 49.0504C32.0116 49.0619 30.7389 49.0603 29.4666 49.0587C29.0178 49.0581 28.5689 49.0575 28.1203 49.0575H2.64336ZM33.655 8.16578C33.6528 8.20045 33.6505 8.23737 33.6486 8.27762L33.6472 8.2762H2.635C2.60529 7.60126 2.72839 6.97442 2.94064 6.36031C3.69482 4.17841 5.80315 2.63466 8.11241 2.63041C14.7982 2.61909 21.484 2.61485 28.1684 2.63041C31.1087 2.63749 33.6048 5.09107 33.6614 7.97057C33.6633 8.03247 33.6594 8.09438 33.655 8.16578Z" fill="#1a85ff"/>
<path fill-rule="evenodd" clip-rule="evenodd" d="M83.3322 60.1542V60.161L83.3328 60.8188L83.0889 60.8186C82.9316 60.8183 82.7764 60.8179 82.6227 60.8175H82.6182C82.1621 60.8162 81.7194 60.815 81.2768 60.8188C80.4491 60.8259 80.0741 61.2065 80.0741 62.0357L80.0739 73.3515C80.0736 75.3679 80.0734 77.3849 80.0755 79.4018C80.0769 80.1546 80.4816 80.5508 81.2372 80.555C81.5042 80.5559 81.772 80.5556 82.0395 80.5553C82.173 80.5552 82.3066 80.555 82.4399 80.555C83.0342 80.555 83.3314 80.8484 83.3314 81.4351C83.3314 81.5375 83.3311 81.6398 83.3308 81.742C83.3301 81.9462 83.3295 82.1502 83.3314 82.3549C83.3385 82.9987 83.7644 83.4557 84.3657 83.4699C84.9586 83.484 85.4227 83.0383 85.4454 82.3987C85.4638 81.8808 85.4581 81.3601 85.4468 80.8422C85.4425 80.6286 85.5161 80.5508 85.7312 80.555C86.2264 80.5663 86.7217 80.5677 87.2169 80.555C87.4617 80.5479 87.5141 80.6611 87.5098 80.8762C87.4999 81.3714 87.5042 81.8667 87.5084 82.3619C87.5141 83.0029 87.9456 83.4642 88.5456 83.4741C89.1399 83.484 89.6054 82.9973 89.6111 82.3506L89.6135 82.0856V82.0845C89.6178 81.6423 89.6222 81.1995 89.6068 80.7588C89.5984 80.4842 89.6677 80.347 89.9535 80.255C90.9794 79.9239 91.8255 79.3112 92.4807 78.458C94.2593 76.1374 93.9678 72.9848 91.8043 71.0137C91.7189 70.9356 91.6323 70.8577 91.5422 70.7767L91.4392 70.6841L91.4999 70.6309L91.5543 70.5833C91.5914 70.551 91.6238 70.5227 91.6557 70.4945C93.2745 69.0795 93.9367 67.2966 93.5164 65.1967C93.1075 63.1521 91.8411 61.7852 89.8729 61.0905C89.662 61.0155 89.6054 60.9122 89.6083 60.7084C89.6167 60.083 89.6182 59.4576 89.6083 58.8336C89.5984 58.2279 89.1328 57.7624 88.5612 57.7652C87.9754 57.7695 87.5226 58.2223 87.5098 58.8265C87.5049 59.0388 87.5061 59.2506 87.5073 59.4626C87.5079 59.5569 87.5084 59.6517 87.5084 59.7462V60.7961H85.4935C85.4865 60.7784 85.4797 60.764 85.4739 60.752C85.4646 60.7324 85.4581 60.7187 85.4581 60.7056C85.4564 60.4697 85.4556 60.2338 85.4548 59.998C85.4536 59.644 85.4524 59.2902 85.4482 58.9368C85.4397 58.2492 84.9982 57.7652 84.3884 57.7652C83.7587 57.7652 83.3356 58.2294 83.3328 58.9284C83.3309 59.332 83.3315 59.7356 83.3322 60.1542ZM82.1825 71.8362C82.184 71.8188 82.1854 71.8008 82.1867 71.7821H82.1852L82.2073 71.7765L82.2233 71.7721L82.2478 71.765C82.2785 71.7561 82.3009 71.7495 82.3225 71.7495C82.9236 71.7504 83.5248 71.7477 84.1259 71.745H84.127C85.577 71.7385 87.0266 71.732 88.4749 71.775C90.1134 71.8245 91.4746 73.3216 91.5157 74.9814C91.5581 76.7105 90.3002 78.2302 88.6319 78.4042C88.1006 78.4589 87.5613 78.4561 87.0232 78.4533C86.865 78.4525 86.7069 78.4517 86.5491 78.4523C85.938 78.4549 85.3272 78.4546 84.7165 78.4542H84.7132C83.9815 78.4538 83.2498 78.4534 82.5178 78.458C82.273 78.4594 82.1598 78.4099 82.1612 78.1283C82.1695 76.6418 82.1694 75.1553 82.1693 73.6687C82.1693 73.1276 82.1693 72.5864 82.1697 72.0453C82.1697 71.9903 82.1743 71.9351 82.1795 71.8734L82.1825 71.8362ZM82.6055 69.6285H82.1909L82.1895 69.6299C82.186 69.5851 82.1825 69.5476 82.1795 69.5146C82.1738 69.4538 82.1697 69.4088 82.1697 69.3639C82.1697 68.8539 82.1699 68.3439 82.1702 67.8339V67.8291C82.171 66.3017 82.1718 64.7743 82.1654 63.2469C82.164 63.0021 82.2362 62.9229 82.4852 62.9229C83.3207 62.9272 84.1559 62.9261 84.9911 62.9251C86.0768 62.9237 87.1624 62.9224 88.2485 62.9328C89.9479 62.9497 91.3756 64.3138 91.51 66.0089C91.6458 67.7282 90.4799 69.2733 88.7861 69.5563C88.3386 69.6301 87.8764 69.6292 87.4174 69.6284C87.3562 69.6282 87.2949 69.6281 87.2338 69.6282L87.132 69.6285C86.1255 69.6332 85.1193 69.6316 84.1136 69.6301C83.6111 69.6293 83.108 69.6285 82.6055 69.6285Z" fill="#1a85ff"/>
<path d="M85.8483 97.8595L86.8386 97.8589L86.8371 97.8603L87.4932 97.8605C88.2529 97.861 89.0127 97.8615 89.7718 97.856C89.9572 97.8546 90.1553 97.839 90.3237 97.7725C90.8048 97.5829 91.0425 97.1132 90.9505 96.5953C90.8628 96.1043 90.4496 95.7519 89.8808 95.7491C87.8658 95.7392 85.8509 95.7378 83.836 95.7477C83.1709 95.7505 82.7111 96.2161 82.7224 96.8231C82.7337 97.4358 83.1921 97.856 83.8685 97.8589C84.5288 97.8607 85.1884 97.8601 85.8483 97.8595Z" fill="#1a85ff"/>
<path fill-rule="evenodd" clip-rule="evenodd" d="M104.499 73.6145C104.499 76.1842 104.5 78.7548 104.5 81.3248C104.501 86.4654 104.501 91.6064 104.499 96.7467C104.498 100.321 102.156 103.359 98.7007 104.243C98.0908 104.399 97.4456 104.487 96.8159 104.488C91.2469 104.502 85.6787 104.501 80.11 104.499L76.9722 104.498C73.0979 104.498 69.8831 101.742 69.2973 97.9169C69.2435 97.5688 69.2152 97.2136 69.2152 96.8613C69.211 81.3799 69.2096 65.9 69.211 50.4186C69.211 46.1312 72.6154 42.7013 76.9113 42.6914L78.936 42.6869H78.9372C84.8996 42.6734 90.862 42.6599 96.8244 42.707C100.011 42.7324 102.332 44.2847 103.765 47.1274C104.27 48.1306 104.495 49.2173 104.496 50.3394C104.5 56.5428 104.5 62.7462 104.499 68.9488L104.499 73.6145ZM102.357 89.1057V52.6119H71.332V88.6034C71.332 88.9374 71.4948 89.1048 71.8202 89.1057H102.357ZM102.38 91.6768C102.38 91.3749 102.224 91.224 101.914 91.224L84.0909 91.2242C79.9757 91.2246 75.8607 91.225 71.7466 91.2169C71.4283 91.2169 71.3236 91.2933 71.3264 91.6258C71.3366 92.7383 71.3352 93.8508 71.3339 94.9628C71.3332 95.5481 71.3325 96.1333 71.3335 96.7184C71.3405 99.9247 73.7955 102.377 77.0118 102.378C83.5787 102.383 90.1457 102.381 96.7126 102.374C97.1103 102.374 97.5163 102.34 97.9055 102.258C100.554 101.702 102.373 99.4493 102.38 96.7339C102.382 95.6126 102.382 94.4906 102.381 93.3689V93.3622C102.38 92.8003 102.38 92.2385 102.38 91.6768ZM102.409 50.4823C102.392 50.3352 102.378 50.1957 102.364 50.0618C102.337 49.7886 102.312 49.5382 102.262 49.2923C101.73 46.6434 99.445 44.8011 96.6829 44.7997C90.2829 44.7955 83.883 44.7969 77.483 44.7997C77.084 44.7997 76.6821 44.8195 76.2845 44.8535C73.654 45.0785 71.4283 47.4472 71.3335 50.096C71.3221 50.4186 71.4184 50.4894 71.7226 50.4894C81.8001 50.4823 91.8776 50.4823 101.955 50.4823H102.409Z" fill="#1a85ff"/>
<path fill-rule="evenodd" clip-rule="evenodd" d="M50.4854 93.7158C50.2986 92.8243 50.1104 91.9286 49.9222 91.0344L49.8083 90.4916C49.6385 89.6817 49.4686 88.8713 49.2939 88.0629C49.1963 87.6073 49.3421 87.2436 49.7142 86.9847C50.1104 86.7088 50.5278 86.696 50.9382 86.9635L52.5362 88.0014L52.543 88.0058C54.7747 89.4552 57.0065 90.9047 59.2356 92.3588C59.7917 92.7224 59.8993 93.3465 59.5172 93.9365C58.5643 95.4064 57.6089 96.8751 56.6534 98.3438C56.1759 99.0778 55.6985 99.8118 55.2213 100.546C55.1269 100.691 55.032 100.836 54.9372 100.98C54.6897 101.358 54.4418 101.736 54.2025 102.118C53.9365 102.544 53.5686 102.752 53.072 102.663C52.5824 102.575 52.298 102.275 52.1947 101.773C52.0321 100.991 51.8648 100.211 51.6975 99.4311L51.6972 99.4297C51.4699 98.37 51.2424 97.3095 51.0273 96.2472C50.9636 95.9302 50.8603 95.851 50.549 95.8835C48.6558 96.0859 46.7611 96.0788 44.8679 95.8864C42.0846 95.6048 39.4018 94.9227 36.8223 93.8403C33.0386 92.2527 29.7374 89.966 26.9598 86.9479C23.4252 83.1076 21.1103 78.6249 20.0236 73.5183C19.6783 71.8924 19.4505 70.2468 19.4448 68.58C19.4434 67.9871 19.8976 67.5555 20.4806 67.5513C21.0551 67.547 21.5008 67.9786 21.5333 68.5701C21.5405 68.6946 21.5497 68.8188 21.559 68.9428C21.5681 69.0654 21.5773 69.1877 21.5843 69.3101C21.7866 72.7032 22.6385 75.9266 24.0973 78.9928C25.6793 82.3181 27.8626 85.1961 30.6586 87.5832C34.3305 90.7174 38.5556 92.7125 43.3241 93.5389C45.6022 93.9337 47.8903 93.9959 50.191 93.8091C50.2491 93.8049 50.3085 93.795 50.3651 93.7809C50.3858 93.7754 50.4048 93.7637 50.4305 93.7479C50.4451 93.7389 50.462 93.7285 50.4825 93.7172L50.4854 93.7158ZM53.7568 98.913L54.6818 97.4905C55.5419 96.1677 56.3799 94.8789 57.2249 93.5785L56.5547 93.1422C55.0106 92.137 53.4866 91.1448 51.889 90.1061L52.6552 93.7192C53.0205 95.4415 53.3844 97.158 53.7568 98.913Z" fill="#1a85ff"/>
<path fill-rule="evenodd" clip-rule="evenodd" d="M54.842 9.45909C54.9577 10.0042 55.0718 10.5458 55.1853 11.0848L55.1855 11.0859C55.4594 12.3863 55.7302 13.6717 56.0122 14.9549C56.1226 15.46 56.0787 15.893 55.6344 16.2142C55.1944 16.5326 54.8151 16.5142 54.2633 16.1548C51.5961 14.4214 48.9288 12.6867 46.2616 10.9505C45.5088 10.4609 45.3956 9.91188 45.8852 9.16194L46.8197 7.72586C48.2502 5.52766 49.6807 3.32956 51.1065 1.12765C51.3796 0.704572 51.7234 0.439969 52.2455 0.533358C52.7846 0.630992 53.0535 0.973419 53.1639 1.51394C53.3621 2.49104 53.5705 3.46613 53.7788 4.44114C53.9614 5.29603 54.1441 6.15086 54.3199 7.00692C54.3751 7.27293 54.4529 7.34368 54.7317 7.31538C59.4761 6.84985 64.0621 7.50358 68.4655 9.34023C72.5237 11.0325 76.0173 13.5243 78.9067 16.8467C82.3833 20.8441 84.5935 25.4541 85.4963 30.674C85.6848 31.7638 85.7729 32.8727 85.8606 33.9777L85.8611 33.9838C85.872 34.1206 85.8828 34.2573 85.8939 34.394C85.9533 35.134 85.5345 35.6193 84.9105 35.6491C84.261 35.6788 83.8124 35.2373 83.7841 34.4774C83.719 32.7285 83.4827 31.0051 83.0583 29.3085C81.789 24.2386 79.2817 19.8847 75.4456 16.3246C71.2162 12.3994 66.2143 10.1185 60.4878 9.44211C58.6922 9.22986 56.8895 9.21995 55.0882 9.41098C55.045 9.41539 55.0028 9.42422 54.951 9.43505C54.9199 9.44157 54.8853 9.44881 54.8449 9.45626L54.842 9.45909ZM53.3421 13.0291C53.3704 13.0149 53.3987 13.0008 53.4285 12.9866L53.0931 11.4082C52.5958 9.06773 52.0959 6.71501 51.5819 4.29156C50.855 5.40774 50.1527 6.48723 49.4563 7.55779L49.4557 7.55871C49.0081 8.2467 48.563 8.931 48.1152 9.61898L48.3236 9.7549C50.0136 10.8572 51.6786 11.9431 53.3436 13.0277L53.3421 13.0291Z" fill="#1a85ff"/>
</svg>
