<svg width="80" height="105" viewBox="0 0 80 105" fill="none" xmlns="http://www.w3.org/2000/svg">
<path d="M38.5961 0.5C38.2992 0.5 38.0131 0.618379 37.8013 0.829081C37.5912 1.03978 37.4736 1.32555 37.4736 1.62353V12.8742C37.4736 13.1722 37.5912 13.458 37.8013 13.6687C38.0131 13.8794 38.2992 13.9977 38.5961 13.9977C38.8948 13.9977 39.1809 13.8794 39.3909 13.6687C39.6009 13.458 39.7204 13.1722 39.7204 12.8742V1.62353C39.7204 1.32555 39.6009 1.03978 39.3909 0.829081C39.1809 0.618379 38.8948 0.5 38.5961 0.5Z" fill="#1a85ff"/>
<path d="M27.5011 6.52169C27.2023 6.52169 26.9163 6.64007 26.7062 6.85077C26.4944 7.06148 26.3767 7.34725 26.3767 7.64524V16.6445C26.3767 16.9424 26.4944 17.2282 26.7062 17.4389C26.9163 17.6496 27.2023 17.768 27.5011 17.768C27.798 17.768 28.0841 17.6496 28.2941 17.4389C28.3719 17.3617 28.4371 17.2744 28.4878 17.1802C28.5222 17.1158 28.5512 17.0482 28.5729 16.9783C28.6055 16.8712 28.6236 16.7587 28.6236 16.6445V7.64524C28.6236 7.34725 28.5059 7.06148 28.2941 6.85077C28.0841 6.64007 27.798 6.52169 27.5011 6.52169Z" fill="#1a85ff"/>
<path d="M49.6929 6.52169C49.3942 6.52169 49.1081 6.64007 48.8981 6.85077C48.6881 7.06148 48.5686 7.34725 48.5686 7.64524V16.6445C48.5686 16.9424 48.6881 17.2282 48.8981 17.4389C49.1081 17.6496 49.3942 17.768 49.6929 17.768C49.9899 17.768 50.2759 17.6496 50.4878 17.4389C50.6978 17.2282 50.8155 16.9424 50.8155 16.6445V7.64524C50.8155 7.34725 50.6978 7.06148 50.4878 6.85077C50.4443 6.80752 50.3972 6.76815 50.3484 6.73292C50.2506 6.66272 50.1419 6.60884 50.0279 6.57307C49.9211 6.53932 49.807 6.52169 49.6929 6.52169Z" fill="#1a85ff"/>
<path d="M46.3833 27.384C46.644 27.3792 46.9137 27.3742 47.1944 27.3742L42.8418 31.7202C41.4694 30.4963 39.858 29.9052 37.9696 30.221C36.7837 30.4188 35.7753 30.9526 34.9352 31.8C33.2043 33.5465 32.8386 36.2168 34.0136 38.3904C35.1651 40.519 37.5985 41.6463 40.0138 41.1709C42.1321 40.7539 44.0676 38.8782 44.2703 36.9766H37.6564L38.2774 36.3497C38.9111 35.7094 39.4959 35.1185 40.0934 34.5411C40.1477 34.4884 40.2401 34.4658 40.3396 34.4562C40.4157 34.4489 40.4954 34.449 40.5696 34.449L42.6209 34.4486C43.8847 34.4501 45.1503 34.4515 46.414 34.4355C46.8377 34.4299 46.9626 34.5872 46.9934 34.9716C47.4587 40.6516 42.2154 44.9639 36.8525 43.5523C35.4693 43.1871 34.2743 42.4802 33.2242 41.5058L33.1319 41.5567C33.0794 41.5843 33.0359 41.6069 33.0124 41.6429C32.4022 42.5364 31.544 42.7375 30.5229 42.6285C30.101 42.5836 29.6719 42.5939 29.203 42.6052C28.9803 42.6106 28.7467 42.6162 28.5005 42.6162L28.6924 42.3934L28.7033 42.3824L28.8028 42.2656L28.8843 42.1745L28.9386 42.1194L29.413 41.6424L30.3816 40.6708C30.7075 40.3449 31.0353 40.021 31.3666 39.7008C31.611 39.4671 31.6345 39.2828 31.4988 38.9726C29.3786 34.1759 32.3044 28.67 37.4699 27.7294C39.0777 27.4372 40.6456 27.6125 42.1375 28.2857C42.4978 28.4486 42.7314 28.4217 42.9486 28.1126C43.3868 27.4855 43.9825 27.2967 44.7393 27.3596C45.2716 27.4044 45.8093 27.3945 46.3833 27.384Z" fill="#1a85ff"/>
<path fill-rule="evenodd" clip-rule="evenodd" d="M65.394 76.1134C63.549 76.1134 62.0318 77.6313 62.0318 79.4752C62.0318 81.3191 63.549 82.8392 65.394 82.8392C67.2371 82.8392 68.7562 81.3191 68.7562 79.4752C68.7562 77.6313 67.2371 76.1134 65.394 76.1134ZM65.394 78.3605C66.0222 78.3605 66.5075 78.8457 66.5075 79.4752C66.5075 80.1047 66.0222 80.5922 65.394 80.5922C64.7639 80.5922 64.2787 80.1047 64.2787 79.4752C64.2787 78.8457 64.7639 78.3605 65.394 78.3605Z" fill="#1a85ff"/>
<path fill-rule="evenodd" clip-rule="evenodd" d="M67.0923 40.0442L55.5175 39.9822C55.8832 38.5778 56.0787 37.1042 56.0787 35.5852C56.0787 25.9858 48.297 18.2039 38.6975 18.2039C29.098 18.2039 21.3162 25.9858 21.3162 35.5852C21.3162 37.0443 21.4955 38.4615 21.8341 39.8158L9.44268 39.7414C4.80225 39.7156 1.00191 43.4759 0.976562 48.1152V48.168L0.978373 48.3514L0.976562 48.4137V95.4679C0.976562 100.445 5.03219 104.5 10.0094 104.5H67.0162C71.9934 104.5 76.0617 100.447 76.0617 95.4679V87.3655C78.1728 86.7727 79.7335 84.8256 79.7335 82.5342V76.4448C79.7335 74.1522 78.1728 72.2043 76.0617 71.6113V63.5946C76.0617 63.574 76.0509 63.4869 76.0509 63.4476V63.4166L76.0599 63.4036L76.0509 63.3925V63.3641L76.0835 49.1026C76.0835 44.1369 72.0586 40.0698 67.0923 40.0442ZM51.5234 47.3152H63.3716C64.0107 47.3152 64.5304 47.834 64.5304 48.4739C64.5304 49.1139 64.0107 49.6327 63.3716 49.6327H13.6703C13.0312 49.6327 12.5116 49.1139 12.5116 48.4739C12.5116 47.834 13.0312 47.3152 13.6703 47.3152H25.8716C24.4756 45.7899 23.3441 44.0175 22.5601 42.0672L9.43 41.9883C6.00264 41.9692 3.24337 44.7005 3.22345 48.1281V48.1677L3.22707 48.4026L3.22526 48.4394L3.23069 48.4793L3.2325 48.4922L3.23793 48.5369V48.5411C3.24156 48.5592 3.24518 48.5762 3.24518 48.6505V48.6652C3.25242 48.716 3.25604 48.7675 3.25604 48.8194L3.25785 48.8348L3.26328 48.8654C3.28139 49.0496 3.30674 49.22 3.34476 49.3965C3.35381 49.4392 3.36105 49.4825 3.36467 49.526L3.36829 49.537L3.40269 49.6532L3.42623 49.7564C3.43709 49.8122 3.45882 49.8794 3.46968 49.9078C3.48598 49.9473 3.49865 49.9875 3.50952 50.0285L3.5584 50.1936L3.58556 50.2549L3.61453 50.3379C3.62901 50.3844 3.64893 50.4371 3.6779 50.4959L3.70868 50.5617C3.78653 50.7443 3.87163 50.9228 3.95853 51.0818L4.0038 51.1718C4.01466 51.1987 4.03095 51.2295 4.05087 51.2643L4.07984 51.3078L4.12872 51.3847C4.25003 51.6036 4.42203 51.844 4.61576 52.0759L4.62481 52.0871C4.73888 52.2272 4.86924 52.3685 5.01951 52.5194L5.04486 52.5457C5.28928 52.8073 5.57716 53.0435 5.90849 53.2611L5.93022 53.2765C6.04428 53.3554 6.16197 53.4284 6.29957 53.5069L6.30681 53.5109L6.34483 53.5339L6.49873 53.6199L6.6997 53.722C6.96947 53.851 7.24286 53.9545 7.54522 54.0555C7.64843 54.0899 7.79689 54.1294 7.96527 54.175L7.987 54.1806C8.12822 54.2149 8.25858 54.2393 8.38713 54.2553L8.45412 54.2643L8.49757 54.2722C8.60077 54.2896 8.70578 54.3001 8.80899 54.308L8.83795 54.3126L8.90675 54.3134C8.96469 54.3131 9.02263 54.3172 9.08057 54.3258C9.10592 54.3303 9.21274 54.337 9.35758 54.337L9.42276 54.339L9.51329 54.3479L67.0525 54.5602C69.7701 54.5679 72.1853 55.7924 73.8167 57.7138L73.8366 49.1004C73.8366 45.3454 70.8311 42.3106 67.0778 42.2913L54.7661 42.2252C53.9857 44.1122 52.8813 45.8318 51.5234 47.3152ZM29.2446 47.3152C25.8227 44.5539 23.6337 40.3252 23.6337 35.5852C23.6337 27.2657 30.378 20.5214 38.6975 20.5214C47.0169 20.5214 53.7612 27.2657 53.7612 35.5852C53.7612 40.3252 51.5723 44.5539 48.1503 47.3152H29.2446ZM74.9519 73.6821L74.9374 73.6822L74.9012 73.682L74.8631 73.6812L74.7636 73.6729L74.7201 73.6732L64.7549 73.6469C61.5194 73.6412 58.9177 76.2383 58.9177 79.4752C58.9177 82.707 61.514 85.3035 64.7458 85.3035H74.7147L74.7599 85.3024C74.8197 85.293 74.8794 85.2881 74.9392 85.2881L74.9971 85.2896C76.4057 85.1509 77.4866 83.9823 77.4866 82.5341V76.4425C77.4866 74.9794 76.384 73.7999 74.9519 73.6821ZM73.8148 87.5505H64.7458C60.2991 87.5505 56.6708 83.9215 56.6708 79.4752C56.6708 75.0227 60.3082 71.392 64.7585 71.3998L73.7841 71.4237L73.804 63.4191C73.7171 59.746 70.7423 56.8175 67.047 56.8074L9.35758 56.5946C9.20549 56.5946 9.06065 56.5807 8.914 56.5668L8.88141 56.5639C8.82528 56.5708 8.77096 56.5647 8.71484 56.558C8.49757 56.5445 8.28212 56.5181 8.06847 56.479C7.85483 56.4509 7.6448 56.4107 7.43659 56.3584C7.36779 56.3444 7.29718 56.328 7.22657 56.3094L7.05276 56.2603L6.92964 56.2203L6.83368 56.1893L6.61098 56.1125L6.34302 56.0133L6.0823 55.9082L5.95375 55.8529L5.71295 55.7417L5.70028 55.7349L5.41059 55.5868L5.39973 55.5811C5.32368 55.5402 5.24402 55.4952 5.16255 55.4452L5.15168 55.4385L4.9833 55.3388L4.88915 55.2808L4.7425 55.1854L4.67551 55.14L4.66646 55.1333C4.21744 54.8379 3.79377 54.4939 3.41356 54.0887L3.22345 53.8939V70.3153H17.1755L21.3199 65.2853C21.4321 65.1494 21.5733 65.0399 21.7327 64.9648C21.8214 64.9229 21.9155 64.8923 22.0115 64.8734L22.0948 64.86L22.1654 64.8532L22.2414 64.8508H34.6889C35.2049 63.1674 36.7729 61.9305 38.6106 61.9305C40.8701 61.9305 42.7259 63.7872 42.7259 66.047C42.7259 68.2968 40.8701 70.1494 38.6106 70.1494C36.7747 70.1494 35.2049 68.9179 34.6889 67.2431H22.8081L18.6638 72.2707C18.5515 72.4071 18.4103 72.517 18.251 72.5925C18.0917 72.668 17.916 72.7073 17.7404 72.7076H3.22345V78.1954H30.311C30.827 76.5132 32.3986 75.2774 34.2345 75.2774C36.494 75.2774 38.3499 77.1342 38.3499 79.3939C38.3499 81.6437 36.494 83.4963 34.2345 83.4963C32.3986 83.4963 30.827 82.2637 30.311 80.5877H3.22345V86.0662H17.7404C17.8581 86.0663 17.9758 86.0842 18.0898 86.1189C18.1442 86.1358 18.1985 86.1566 18.251 86.1813C18.3144 86.2114 18.3741 86.2469 18.432 86.2875C18.5189 86.3486 18.5968 86.4211 18.6638 86.5031L22.8081 91.5423H34.6853C35.1977 89.8616 36.7711 88.6244 38.6106 88.6244C40.8701 88.6244 42.7259 90.477 42.7259 92.7268C42.7259 94.9865 40.8701 96.8433 38.6106 96.8433C36.7783 96.8433 35.2122 95.6121 34.6926 93.9347H22.2414C22.0658 93.9348 21.8902 93.8957 21.7309 93.8201C21.5697 93.7446 21.4285 93.6345 21.3162 93.4978L17.1755 88.4585H3.22345V95.4679C3.22345 99.2319 6.24525 102.253 10.0094 102.253H67.0162C70.7804 102.253 73.8148 99.2299 73.8148 95.4679V87.5505ZM36.9014 66.047C36.9014 66.9926 37.6637 67.7571 38.6106 67.7571C39.5792 67.7571 40.3342 66.9932 40.3342 66.047C40.3342 65.0795 39.5774 64.3228 38.6106 64.3228C37.6637 64.3228 36.9014 65.0795 36.9014 66.047ZM35.9581 79.3939C35.9581 78.4264 35.2013 77.6697 34.2345 77.6697C33.2894 77.6697 32.5235 78.4264 32.5235 79.3939C32.5235 80.3396 33.2894 81.104 34.2345 81.104C35.2031 81.104 35.9581 80.3402 35.9581 79.3939ZM38.6106 91.0167C39.5792 91.0167 40.3342 91.7805 40.3342 92.7268C40.3342 93.6943 39.5774 94.451 38.6106 94.451C37.6637 94.451 36.9014 93.6943 36.9014 92.7268C36.9014 91.7812 37.6637 91.0167 38.6106 91.0167Z" fill="#1a85ff"/>
</svg>
