<svg width="105" height="105" viewBox="0 0 105 105" fill="none" xmlns="http://www.w3.org/2000/svg">
<path fill-rule="evenodd" clip-rule="evenodd" d="M52.5 4.5C46.4249 4.5 41.5 9.42487 41.5 15.5V25.5H35.5C29.4249 25.5 24.5 30.4249 24.5 36.5V89.5C24.5 95.5751 29.4249 100.5 35.5 100.5H69.5C75.5751 100.5 80.5 95.5751 80.5 89.5V36.5C80.5 30.4249 75.5751 25.5 69.5 25.5H63.5V15.5C63.5 9.42487 58.5751 4.5 52.5 4.5ZM59.5 25.5V15.5C59.5 11.634 56.366 8.5 52.5 8.5C48.634 8.5 45.5 11.634 45.5 15.5V25.5H59.5ZM35.5 29.5H69.5C73.366 29.5 76.5 32.634 76.5 36.5V89.5C76.5 93.366 73.366 96.5 69.5 96.5H35.5C31.634 96.5 28.5 93.366 28.5 89.5V36.5C28.5 32.634 31.634 29.5 35.5 29.5Z" fill="#1a85ff"/>
<path d="M52.5 42.5C53.6046 42.5 54.5 43.3954 54.5 44.5V62.086L60.793 55.793C61.5784 55.0076 62.8327 55.0076 63.618 55.793C64.4034 56.5784 64.4034 57.8327 63.618 58.618L54.412 67.824C53.6567 68.5793 52.4433 68.5793 51.688 67.824L42.382 58.518C41.5966 57.7327 41.5966 56.4784 42.382 55.693C43.1673 54.9076 44.4216 54.9076 45.207 55.693L50.5 60.986V44.5C50.5 43.3954 51.3954 42.5 52.5 42.5Z" fill="#1a85ff"/>
<path d="M38.5 76.5C37.3954 76.5 36.5 77.3954 36.5 78.5C36.5 79.6046 37.3954 80.5 38.5 80.5H66.5C67.6046 80.5 68.5 79.6046 68.5 78.5C68.5 77.3954 67.6046 76.5 66.5 76.5H38.5Z" fill="#1a85ff"/>
</svg>
