<svg width="105" height="105" viewBox="0 0 105 105" fill="none" xmlns="http://www.w3.org/2000/svg">
<path fill-rule="evenodd" clip-rule="evenodd" d="M54.6388 43.8227V49.9888C55.6515 49.4053 56.8272 49.0714 58.0812 49.0714C61.8835 49.0714 64.9659 52.1415 64.9659 55.9286V56.8459C65.9785 56.2625 67.1542 55.9286 68.4082 55.9286C72.2105 55.9286 75.2929 58.9986 75.2929 62.7857V63.7031C76.3056 63.1196 77.4813 62.7857 78.7353 62.7857C82.5376 62.7857 85.62 65.8558 85.62 69.6429V93.6429C85.62 97.4299 82.5376 100.5 78.7353 100.5H40.8694C37.3455 100.5 33.8216 99.1611 31.1329 96.4832L21.3965 86.7857C18.7078 84.1078 18.7078 79.7661 21.3965 77.0882C24.0851 74.4104 28.4443 74.4104 31.1329 77.0882L36.8665 82.7988C37.289 83.1425 37.8287 83.3486 38.4167 83.3486C39.7701 83.3486 40.8675 82.2568 40.8694 80.7857V31.9286C40.8694 28.1415 43.9518 25.0714 47.7541 25.0714C51.5564 25.0714 54.6388 28.1415 54.6388 31.9286V39.6177C54.6473 39.6102 54.6557 39.6027 54.6641 39.5952V43.8081C54.6557 43.813 54.6473 43.8178 54.6388 43.8227ZM62.3222 46.5361C61.0355 45.9623 59.6092 45.6431 58.1082 45.6429C62.2878 42.5152 64.9912 37.5363 64.9912 31.9286C64.9912 22.4608 57.2852 14.7857 47.7794 14.7857C38.2736 14.7857 30.5677 22.4608 30.5677 31.9286C30.5677 37.5371 33.2718 42.5165 37.4524 45.6441V49.7479C31.2788 46.191 27.1253 39.5429 27.1253 31.9286C27.1253 20.5673 36.3725 11.3571 47.7794 11.3571C59.1864 11.3571 68.4336 20.5673 68.4336 31.9286C68.4336 37.6405 66.0962 42.8087 62.3222 46.5361ZM67.3126 51.2632C66.7788 50.2203 66.0715 49.2801 65.2287 48.4803C69.3474 44.1742 71.8759 38.3455 71.8759 31.9286C71.8759 18.6737 61.0876 7.92857 47.7794 7.92857C34.4713 7.92857 23.6829 18.6737 23.6829 31.9286C23.6829 41.5025 29.3114 49.7671 37.4524 53.619V57.3634C27.36 53.2944 20.2406 43.4396 20.2406 31.9286C20.2406 16.7802 32.5702 4.5 47.7794 4.5C62.9887 4.5 75.3183 16.7802 75.3183 31.9286C75.3183 39.4722 72.2607 46.3045 67.3126 51.2632ZM37.4524 41C35.31 38.5824 34.01 35.4067 34.01 31.9286C34.01 24.3544 40.1748 18.2143 47.7794 18.2143C55.3841 18.2143 61.5489 24.3544 61.5489 31.9286C61.5489 35.4067 60.2489 38.5824 58.1065 41V31.9286C58.1065 26.2479 53.4829 21.6429 47.7794 21.6429C42.076 21.6429 37.4524 26.2479 37.4524 31.9286V41ZM75.2929 69.6429C75.2929 70.5896 74.5223 71.3571 73.5718 71.3571C72.6212 71.3571 71.8506 70.5896 71.8506 69.6429V62.7857C71.8506 60.8922 70.3094 59.3571 68.4082 59.3571C66.5071 59.3571 64.9659 60.8922 64.9659 62.7857V69.6429C64.9659 70.5896 64.1953 71.3571 63.2447 71.3571C62.2941 71.3571 61.5235 70.5896 61.5235 69.6429V55.9286C61.5235 54.035 59.9823 52.5 58.0812 52.5C56.18 52.5 54.6388 54.035 54.6388 55.9286V69.6429C54.6388 70.5896 53.8682 71.3571 52.9176 71.3571C51.9671 71.3571 51.1965 70.5896 51.1965 69.6429V31.9286C51.1965 30.035 49.6553 28.5 47.7541 28.5C45.8529 28.5 44.3117 30.035 44.3117 31.9286V80.7857C44.3088 84.1513 41.6706 86.7771 38.4167 86.7771C37.0886 86.7771 35.8631 86.3397 34.8775 85.6017L28.8101 79.5585C27.4658 78.2196 25.2862 78.2196 23.9419 79.5585C22.5975 80.8975 22.5975 83.0683 23.9419 84.4072L33.6783 94.1047C35.9437 96.361 38.9997 97.3499 41.9581 97.0714H78.7353C80.6365 97.0714 82.1777 95.5364 82.1777 93.6429V69.6429C82.1777 67.7493 80.6365 66.2143 78.7353 66.2143C76.8341 66.2143 75.2929 67.7493 75.2929 69.6429Z" fill="#1a85ff"/>
</svg>
