<svg viewBox="0 0 24 24" fill="none" xmlns="http://www.w3.org/2000/svg">
<path d="M11.9803 22.16C11.9803 22.16 11.9003 22.16 11.8503 22.16C6.40032 22.09 1.91031 17.59 1.84031 12.14C1.81031 9.4 2.85031 6.81 4.78031 4.87C6.70031 2.91 9.27032 1.84 12.0103 1.84C14.1503 1.84 16.2003 2.5 17.9303 3.74C18.1903 3.92 18.3503 4.2 18.3703 4.51C18.3903 4.81 18.2803 5.11 18.0603 5.32C17.6903 5.69 17.1003 5.72 16.7203 5.44C15.3503 4.46 13.7303 3.94 12.0103 3.94C9.82031 3.94 7.77032 4.8 6.24031 6.35C4.71031 7.9 3.88031 9.97 3.91031 12.15C3.97031 16.48 7.56032 20.06 11.8903 20.13C15.9703 20.19 19.5303 17.11 20.0303 13.07H12.3903L14.8303 15.51C15.2203 15.9 15.2203 16.56 14.8303 16.98C14.4303 17.38 13.7703 17.38 13.3603 16.98L9.02031 12.57L8.97031 12.49C8.97031 12.49 8.95031 12.45 8.94031 12.43L8.89032 12.33L8.84031 12.09V11.78C8.84031 11.78 8.85031 11.7 8.86031 11.67C8.86031 11.67 8.96031 11.46 8.98031 11.45C9.02031 11.39 9.07031 11.33 9.13031 11.26L13.3403 7.06C13.7303 6.67 14.3903 6.67 14.8103 7.06C15.2103 7.46 15.2103 8.11 14.8103 8.53L12.3903 10.97H21.1303C21.7103 10.97 22.1603 11.42 22.1603 12C22.1603 14.73 21.0903 17.3 19.1403 19.22C17.2203 21.12 14.6803 22.16 11.9703 22.16H11.9803Z" fill="currentColor"/>
</svg>
