<svg viewBox="0 0 17 17" fill="none" xmlns="http://www.w3.org/2000/svg">
  <path d="M6.164 0.465391L2.13366 4.46546C1.90884 4.68865 1.90891 5.05047 2.13379 5.2736C2.24175 5.38071 2.3881 5.44088 2.54075 5.44091H4.26804V9.44098C4.26804 9.75659 4.52581 10.0124 4.84381 10.0124C5.16181 10.0124 5.41958 9.75659 5.41958 9.44098L5.41958 4.86946C5.41958 4.55385 5.16181 4.29801 4.84381 4.29801H3.93061L6.57106 1.6774L9.21151 4.29801H8.29835C7.98035 4.29801 7.72257 4.55385 7.72257 4.86946L7.72257 11.1553H5.99529C5.67729 11.1554 5.41958 11.4113 5.41965 11.7268C5.41968 11.8783 5.48031 12.0236 5.58823 12.1307L9.61857 16.1308C9.84343 16.3539 10.2079 16.3539 10.4327 16.1308L14.463 12.1307C14.571 12.0236 14.6317 11.8782 14.6318 11.7267C14.632 11.6516 14.6171 11.5772 14.588 11.5079C14.4988 11.2944 14.2889 11.1552 14.056 11.1553H12.3287V7.15522C12.3287 6.83961 12.0709 6.58377 11.7529 6.58377C11.4349 6.58377 11.1771 6.83961 11.1771 7.15522V11.7267C11.1771 12.0423 11.4349 12.2982 11.7529 12.2982H12.6661L10.0256 14.9188L7.38518 12.2982H8.29835C8.61634 12.2982 8.87412 12.0423 8.87412 11.7267V5.44091H10.6014C10.9194 5.44084 11.1771 5.18494 11.177 4.86936C11.177 4.71789 11.1164 4.5726 11.0085 4.46546L6.97812 0.465391C6.75327 0.242331 6.38882 0.242331 6.164 0.465391Z" fill="currentColor" transform="rotate(90 8.5 8.5)"/>
</svg>

